<svg xmlns="http://www.w3.org/2000/svg" xmlns:xlink="http://www.w3.org/1999/xlink" width="512" zoomAndPan="magnify" viewBox="0 0 384 383.999986" height="512" preserveAspectRatio="xMidYMid meet" version="1.0"><defs><clipPath id="1200cbe9fc"><path d="M 38.398438 38.398438 L 345.898438 38.398438 L 345.898438 345.898438 L 38.398438 345.898438 Z M 38.398438 38.398438 " clip-rule="nonzero"/></clipPath><clipPath id="7e497a0be7"><path d="M 117.117188 117.117188 L 267 117.117188 L 267 267 L 117.117188 267 Z M 117.117188 117.117188 " clip-rule="nonzero"/></clipPath></defs><rect x="-38.4" width="460.8" fill="#ffffff" y="-38.399999" height="460.799983" fill-opacity="1"/><rect x="-38.4" width="460.8" fill="#000000" y="-38.399999" height="460.799983" fill-opacity="1"/><g clip-path="url(#1200cbe9fc)"><path fill="#ffffff" d="M 325.121094 268.46875 C 338.117188 245.9375 345.59375 219.828125 345.59375 191.996094 C 345.59375 164.175781 338.121094 138.070312 325.125 115.539062 C 325.074219 115.425781 325.070312 115.304688 325.007812 115.199219 C 324.945312 115.09375 324.851562 115.03125 324.773438 114.933594 C 311.347656 91.890625 292.105469 72.648438 269.058594 59.21875 C 268.960938 59.144531 268.902344 59.042969 268.789062 58.980469 C 268.675781 58.917969 268.558594 58.914062 268.4375 58.863281 C 245.917969 45.871094 219.820312 38.398438 191.996094 38.398438 C 164.179688 38.398438 138.09375 45.867188 115.570312 58.851562 C 115.449219 58.902344 115.316406 58.90625 115.199219 58.976562 C 115.085938 59.042969 115.015625 59.152344 114.917969 59.226562 C 91.882812 72.65625 72.648438 91.882812 59.226562 114.917969 C 59.152344 115.015625 59.042969 115.085938 58.980469 115.191406 C 58.917969 115.300781 58.914062 115.429688 58.863281 115.542969 C 45.871094 138.082031 38.398438 164.175781 38.398438 191.996094 C 38.398438 219.820312 45.871094 245.90625 58.855469 268.433594 C 58.90625 268.550781 58.914062 268.675781 58.980469 268.796875 C 59.03125 268.882812 59.125 268.921875 59.183594 268.992188 C 72.613281 292.074219 91.871094 311.339844 114.941406 324.773438 C 115.035156 324.851562 115.097656 324.945312 115.207031 325.007812 C 115.285156 325.058594 115.378906 325.039062 115.46875 325.082031 C 138.011719 338.101562 164.136719 345.59375 191.996094 345.59375 C 219.859375 345.59375 245.984375 338.101562 268.539062 325.082031 C 268.621094 325.042969 268.714844 325.0625 268.796875 325.011719 C 268.902344 324.949219 268.960938 324.855469 269.058594 324.78125 C 292.144531 311.332031 311.402344 292.0625 324.832031 268.972656 C 324.882812 268.898438 324.964844 268.871094 325.007812 268.796875 C 325.074219 268.683594 325.074219 268.578125 325.121094 268.46875 Z M 268.34375 317.960938 L 257.40625 299.019531 C 256.539062 297.523438 254.621094 297.007812 253.125 297.875 C 251.625 298.738281 251.109375 300.652344 251.976562 302.15625 L 262.910156 321.09375 C 242.714844 332.230469 219.652344 338.738281 195.125 339.25 L 195.125 317.382812 C 195.125 315.652344 193.722656 314.25 191.992188 314.25 C 190.261719 314.25 188.855469 315.652344 188.855469 317.382812 L 188.855469 339.246094 C 164.335938 338.730469 141.265625 332.222656 121.078125 321.089844 L 132.019531 302.148438 C 132.882812 300.652344 132.371094 298.730469 130.871094 297.867188 C 129.367188 296.988281 127.457031 297.511719 126.589844 299.015625 L 115.644531 317.953125 C 95.402344 305.640625 78.339844 288.574219 66.023438 268.339844 L 84.96875 257.398438 C 86.464844 256.535156 86.980469 254.621094 86.117188 253.117188 C 85.246094 251.617188 83.324219 251.09375 81.832031 251.96875 L 62.894531 262.902344 C 51.761719 242.710938 45.253906 219.644531 44.738281 195.121094 L 66.613281 195.121094 C 68.34375 195.121094 69.746094 193.714844 69.746094 191.984375 C 69.746094 190.253906 68.34375 188.851562 66.613281 188.851562 L 44.75 188.851562 C 45.269531 164.332031 51.773438 141.261719 62.90625 121.074219 L 81.847656 132.007812 C 82.339844 132.289062 82.878906 132.425781 83.414062 132.425781 C 84.5 132.425781 85.550781 131.867188 86.132812 130.859375 C 87 129.359375 86.484375 127.441406 84.988281 126.578125 L 66.042969 115.636719 C 78.359375 95.394531 95.417969 78.335938 115.664062 66.015625 L 126.601562 84.960938 C 127.1875 85.972656 128.238281 86.53125 129.324219 86.53125 C 129.855469 86.53125 130.394531 86.398438 130.890625 86.109375 C 132.390625 85.246094 132.902344 83.324219 132.039062 81.828125 L 121.105469 62.886719 C 141.296875 51.753906 164.363281 45.253906 188.882812 44.730469 L 188.882812 66.613281 C 188.882812 68.34375 190.285156 69.746094 192.015625 69.746094 C 193.746094 69.746094 195.152344 68.34375 195.152344 66.613281 L 195.152344 44.75 C 219.671875 45.269531 242.742188 51.773438 262.933594 62.90625 L 252 81.847656 C 251.128906 83.34375 251.644531 85.261719 253.148438 86.128906 C 253.644531 86.410156 254.183594 86.546875 254.714844 86.546875 C 255.792969 86.546875 256.851562 85.988281 257.429688 84.980469 L 268.371094 66.035156 C 288.613281 78.347656 305.671875 95.40625 317.984375 115.65625 L 299.046875 126.597656 C 297.546875 127.460938 297.035156 129.378906 297.898438 130.878906 C 298.476562 131.886719 299.535156 132.445312 300.613281 132.445312 C 301.144531 132.445312 301.683594 132.3125 302.179688 132.027344 L 321.121094 121.09375 C 332.253906 141.277344 338.761719 164.351562 339.277344 188.871094 L 317.382812 188.871094 C 315.652344 188.871094 314.25 190.273438 314.25 192.003906 C 314.25 193.734375 315.652344 195.136719 317.382812 195.136719 L 339.246094 195.136719 C 338.730469 219.65625 332.222656 242.730469 321.089844 262.914062 L 302.148438 251.988281 C 300.65625 251.117188 298.730469 251.632812 297.867188 253.136719 C 296.996094 254.632812 297.511719 256.550781 299.015625 257.417969 L 317.960938 268.351562 C 305.648438 288.582031 288.589844 305.648438 268.34375 317.960938 Z M 268.34375 317.960938 " fill-opacity="1" fill-rule="nonzero"/></g><g clip-path="url(#7e497a0be7)"><path fill="#ffffff" d="M 266.871094 191.996094 C 266.871094 233.347656 233.347656 266.871094 191.996094 266.871094 C 150.644531 266.871094 117.117188 233.347656 117.117188 191.996094 C 117.117188 150.644531 150.644531 117.117188 191.996094 117.117188 C 233.347656 117.117188 266.871094 150.644531 266.871094 191.996094 " fill-opacity="1" fill-rule="nonzero"/></g><path fill="#000000" d="M 229.3125 185.664062 L 177.9375 156.003906 C 172.945312 153.121094 166.703125 156.726562 166.703125 162.492188 L 166.703125 221.8125 C 166.703125 227.578125 172.945312 231.183594 177.9375 228.300781 L 229.3125 198.640625 C 234.304688 195.757812 234.304688 188.546875 229.3125 185.664062 L 177.9375 156.003906 C 172.945312 153.121094 166.703125 156.726562 166.703125 162.492188 L 166.703125 221.8125 C 166.703125 227.578125 172.945312 231.183594 177.9375 228.300781 L 229.3125 198.640625 C 234.304688 195.757812 234.304688 188.546875 229.3125 185.664062 " fill-opacity="1" fill-rule="nonzero"/></svg>